<svg xmlns="http://www.w3.org/2000/svg" width="223" height="223" viewBox="0 0 223 223"><defs><style>.a{fill:none;}.b{fill:#fff;}</style></defs><path class="a" d="M0,0H222.515V222.515H0Z"/><g transform="translate(49.415 34.442)"><g transform="translate(0 0)"><path class="b" d="M119.893,20H11.726a7.726,7.726,0,1,0,0,15.452H119.893a7.726,7.726,0,0,0,0-15.452Z" transform="translate(-3.967 118.626)"/><path class="b" d="M11.755,125.231h.7L44.668,122.3a15.452,15.452,0,0,0,9.349-4.4l69.536-69.536a14.834,14.834,0,0,0-.541-20.938l-21.17-21.17a15.452,15.452,0,0,0-20.552-.541L11.755,75.242a15.452,15.452,0,0,0-4.4,9.349L4.028,116.81a7.707,7.707,0,0,0,7.726,8.422ZM91.1,17.064,112.2,38.157,96.743,53.223,76.037,32.516ZM22.339,85.9l43.5-43.19L86.7,63.576,43.432,106.843l-23.179,2.163Z" transform="translate(-3.996 -2.058)"/></g></g></svg>