<svg xmlns="http://www.w3.org/2000/svg" width="88" height="88" viewBox="0 0 88 88"><defs><style>.a{fill:none;}.b{fill:#fff;}</style></defs><path class="a" d="M0,0H88V88H0Z"/><g transform="translate(19.543 13.621)"><g transform="translate(0 0)"><path class="b" d="M49.833,20H7.056a3.056,3.056,0,0,0,0,6.111H49.833a3.056,3.056,0,1,0,0-6.111Z" transform="translate(-3.987 34.824)"/><path class="b" d="M7.064,50.77h.275l12.742-1.161a6.111,6.111,0,0,0,3.7-1.742l27.5-27.5a5.867,5.867,0,0,0-.214-8.281L42.692,3.715A6.111,6.111,0,0,0,34.564,3.5L7.064,31a6.111,6.111,0,0,0-1.742,3.7L4.009,47.44A3.048,3.048,0,0,0,7.064,50.77ZM38.445,7.992l8.342,8.342-6.111,5.958L32.486,14.1ZM11.25,35.217l17.2-17.081,8.25,8.25L19.592,43.5l-9.167.856Z" transform="translate(-3.996 -2.058)"/></g></g></svg>