<svg id="home" xmlns="http://www.w3.org/2000/svg" width="24" height="24" viewBox="0 0 24 24">
  <g id="home-2" data-name="home">
    <rect id="矩形_2586" data-name="矩形 2586" width="24" height="24" fill="#fff" opacity="0"/>
    <path id="路径_5722" data-name="路径 5722" d="M16.482,8.137,10.515,2.226a.791.791,0,0,0-1.1,0L3.449,8.145A1.477,1.477,0,0,0,3,9.218V15.5A1.521,1.521,0,0,0,4.463,17H15.468a1.521,1.521,0,0,0,1.463-1.5V9.218A1.528,1.528,0,0,0,16.482,8.137ZM8.417,15.5V11h3.1v4.5Zm6.965,0H13.061V10.253a.762.762,0,0,0-.774-.75H7.644a.762.762,0,0,0-.774.75V15.5H4.548V9.188L9.965,3.824l5.417,5.394Z" transform="translate(2.25 2.496)" fill="#fff"/>
  </g>
</svg>
