<svg xmlns="http://www.w3.org/2000/svg" width="96" height="96" viewBox="0 0 96 96"><defs><style>.a,.b,.c{fill:rgba(67,73,105,0.3);}.a{opacity:0;}.b{stroke:rgba(0,0,0,0);stroke-miterlimit:10;}</style></defs><rect class="a" width="96" height="96"/><g transform="translate(4.735 4)"><path class="b" d="M7.172,71.6A7.173,7.173,0,0,1,0,64.426V28.687a7.172,7.172,0,0,1,7.172-7.171h7.172V17.93a17.929,17.929,0,1,1,35.859,0v3.586h6.625A7.172,7.172,0,0,1,64,28.687V64.426A7.173,7.173,0,0,1,56.828,71.6Zm0-7.172H56.828V28.687H7.172Zm35.859-42.91V17.93a10.758,10.758,0,1,0-21.516,0v3.586Z" transform="translate(11.265 8)"/><path class="c" d="M279.853,354.353a8.878,8.878,0,1,0-11.159,8.571v7.858h4.563v-7.858A8.874,8.874,0,0,0,279.853,354.353Z" transform="translate(-227.437 -303.879)"/></g></svg>