<svg id="log-out" xmlns="http://www.w3.org/2000/svg" width="25" height="24" viewBox="0 0 25 24">
  <rect id="矩形_1727" data-name="矩形 1727" width="24" height="25" transform="translate(25) rotate(90)" fill="#fff" opacity="0"/>
  <g id="组_5194" data-name="组 5194" transform="translate(4.75 5.25)">
    <path id="路径_269" data-name="路径 269" d="M10.618,5.764a.882.882,0,0,0,0-1.764H4.882A.882.882,0,0,0,4,4.882V17.233a.882.882,0,0,0,.882.882h5.736a.882.882,0,0,0,0-1.764H5.764V5.764Z" transform="translate(-4 -4)" fill="#fff"/>
    <path id="路径_270" data-name="路径 270" d="M19.428,10.9,16.94,7.37A.882.882,0,1,0,15.5,8.394l1.517,2.135H9.882a.882.882,0,0,0,0,1.764H16.94L15.352,14.41a.882.882,0,1,0,1.412,1.059L19.41,11.94a.882.882,0,0,0,.018-1.041Z" transform="translate(-4.589 -4.353)" fill="#fff"/>
  </g>
</svg>
