<svg xmlns="http://www.w3.org/2000/svg" width="180" height="201" viewBox="0 0 180 201"><defs><style>.a,.c{fill:none;}.b,.d{fill:#fff;}.b{font-size:18px;font-family:'jf-openhuninn-1\.0';}.c{stroke:#736db9;stroke-miterlimit:10;stroke-width:0;}</style></defs><rect class="a" width="160" height="180" transform="translate(10)"/><text class="b" transform="translate(90 172)"><tspan x="-90" y="0">里辦疫苗接種便民服務</tspan><tspan x="-61.172" y="26">-網路報名系統-</tspan></text><g transform="translate(26 12)"><rect class="c" width="120" height="120"/><path class="d" d="M60.864,92.921a2.5,2.5,0,0,0,2.5-2.5V79.812H74.945a2.5,2.5,0,0,0,2.5-2.5V48.545h4.312a2.5,2.5,0,1,0,0-5H71.7v-9.59h3.515a2.5,2.5,0,1,0,0-5H46.51a2.5,2.5,0,0,0,0,5h3.019v9.59H39.97a2.5,2.5,0,0,0,0,5h4.312V77.312a2.5,2.5,0,0,0,2.5,2.5H58.364V90.421A2.5,2.5,0,0,0,60.864,92.921ZM54.529,33.955H66.7v9.59H54.529ZM49.282,74.812V48.545H72.445V74.812Z"/><path class="d" d="M30.135,59.573a9.376,9.376,0,1,0-9.376,9.376,9.376,9.376,0,0,0,9.376-9.376Zm-13.751,0a4.375,4.375,0,1,1,4.375,4.376,4.375,4.375,0,0,1-4.375-4.376Z"/><path class="d" d="M23.259,45.46V29.514c13.5-2.336,32.354-13.8,37.6-17.122l.01.007.011-.007c5.251,3.319,24.108,14.786,37.6,17.122V45.46a13.82,13.82,0,0,1,5,0V25.06l-2.261-.218C87.031,23.478,62.5,7.492,62.256,7.331l-1.371-.9-.011.007-.01-.007-1.371.9c-.246.161-24.775,16.147-38.973,17.514l-2.261.218v20.4a13.82,13.82,0,0,1,5,0Z"/><path class="d" d="M100.99,50.2a9.375,9.375,0,1,0,9.375,9.375A9.375,9.375,0,0,0,100.99,50.2Zm0,13.751a4.375,4.375,0,1,1,4.375-4.375,4.375,4.375,0,0,1-4.375,4.375Z"/><path class="d" d="M98.468,74.537A22.6,22.6,0,0,1,84.786,94.851a182.408,182.408,0,0,0-23.9,12.758l-.011-.007-.01.007a182.408,182.408,0,0,0-23.9-12.758A22.6,22.6,0,0,1,23.281,74.537a13.821,13.821,0,0,1-5,.006A27.591,27.591,0,0,0,35.005,99.452a183.134,183.134,0,0,1,24.488,13.217l1.371.9.01-.006.011.006,1.371-.9A183.134,183.134,0,0,1,86.744,99.452a27.591,27.591,0,0,0,16.724-24.909,13.821,13.821,0,0,1-5-.006Z"/></g></svg>