<svg xmlns="http://www.w3.org/2000/svg" width="56" height="56" viewBox="0 0 56 56"><defs><style>.a{fill:none;stroke:#736db9;stroke-miterlimit:10;stroke-width:0;}.b{fill:#fff;}</style></defs><rect class="a" width="56" height="56"/><path class="b" d="M48.387,58.806a1.167,1.167,0,0,0,1.167-1.167V52.688h5.4a1.167,1.167,0,0,0,1.167-1.167V38.1h2.012a1.167,1.167,0,1,0,0-2.333H53.444V31.288h1.64a1.167,1.167,0,1,0,0-2.333h-13.4a1.167,1.167,0,0,0,0,2.333H43.1v4.475H38.637a1.167,1.167,0,1,0,0,2.333h2.012V51.522a1.167,1.167,0,0,0,1.167,1.167h5.4v4.951A1.167,1.167,0,0,0,48.387,58.806ZM45.431,31.288h5.68v4.475h-5.68ZM42.982,50.355V38.1H53.792V50.355Z" transform="translate(-19.984 -15.443)"/><path class="b" d="M20.134,54.572a4.375,4.375,0,1,0-4.375,4.375A4.375,4.375,0,0,0,20.134,54.572Zm-6.417,0a2.042,2.042,0,1,1,2.042,2.042,2.042,2.042,0,0,1-2.042-2.042Z" transform="translate(-6.071 -26.772)"/><path class="b" d="M20.592,24.645V17.2c6.3-1.09,15.1-6.44,17.547-7.99l0,0,.005,0c2.45,1.549,11.25,6.9,17.547,7.99v7.441a6.449,6.449,0,0,1,2.333,0v-9.52l-1.055-.1c-6.621-.637-18.069-8.1-18.183-8.172l-.64-.42-.005,0,0,0-.64.42c-.115.075-11.562,7.535-18.187,8.173l-1.055.1v9.52a6.449,6.449,0,0,1,2.333,0Z" transform="translate(-9.738 -3.43)"/><path class="b" d="M95.99,50.2a4.375,4.375,0,1,0,4.375,4.375A4.375,4.375,0,0,0,95.99,50.2Zm0,6.417a2.042,2.042,0,1,1,2.042-2.042,2.042,2.042,0,0,1-2.042,2.042Z" transform="translate(-48.861 -26.773)"/><path class="b" d="M55.7,74.537a10.547,10.547,0,0,1-6.385,9.48,85.123,85.123,0,0,0-11.153,5.954l-.005,0,0,0A85.126,85.126,0,0,0,27,84.017a10.547,10.547,0,0,1-6.386-9.48,6.45,6.45,0,0,1-2.333,0,12.876,12.876,0,0,0,7.8,11.624,85.464,85.464,0,0,1,11.428,6.168l.64.42,0,0,.005,0,.64-.42A85.466,85.466,0,0,1,50.23,86.164a12.876,12.876,0,0,0,7.8-11.624A6.45,6.45,0,0,1,55.7,74.537Z" transform="translate(-9.75 -39.753)"/></svg>