<svg xmlns="http://www.w3.org/2000/svg" width="98" height="98" viewBox="0 0 98 98"><defs><style>.a,.b{fill:rgba(67,73,105,0.3);}.a{stroke:#f4f4f4;stroke-width:2px;opacity:0;}</style></defs><g transform="translate(1 1)"><rect class="a" width="96" height="96"/><g transform="translate(10817 14230)"><g transform="translate(-12024.581 -15120.172)"><path class="b" d="M1241.152,960.121a2.982,2.982,0,0,0,2.078.978,2.707,2.707,0,0,0,.285,0h24.013a3.025,3.025,0,0,0,3.187-2.853,3,3,0,0,0-2.854-3.139,2.744,2.744,0,0,0-.287,0h-24.012c-.053,0-.106,0-.159,0a3,3,0,0,0-2.251,5.018Z"/><path class="b" d="M1241.152,944.14a2.986,2.986,0,0,0,2.077.978c.095,0,.187,0,.282,0h12.032a3,3,0,0,0-.048-5.992h-11.933c-.053,0-.106,0-.159,0a3,3,0,0,0-2.251,5.018Z"/><path class="b" d="M1285.725,924.136l-21.735-23.972a3,3,0,0,0-2.218-.991H1233.7a9.121,9.121,0,0,0-9.117,9V968.09a9.118,9.118,0,0,0,9.107,8.989h43.7a9.121,9.121,0,0,0,9.117-9V926.14a2.99,2.99,0,0,0-.693-1.905Zm-23.192-16.549,14.216,15.558H1266.49a4.173,4.173,0,0,1-3.959-4.4Zm17.982,60.5a3.119,3.119,0,0,1-3.11,3c-.057,0-.114,0-.172-.005h-43.424a3.1,3.1,0,0,1-3.235-2.932l0-59.994a3.119,3.119,0,0,1,1.031-2.205,3.076,3.076,0,0,1,2.241-.795h22.7v13.587a10.177,10.177,0,0,0,9.855,10.387h14.117Z"/></g></g></g></svg>