<svg xmlns="http://www.w3.org/2000/svg" width="80" height="80" viewBox="0 0 80 80"><defs><style>.a{fill:none;}.b{fill:#77ccdb;}</style></defs><g transform="translate(0)"><rect class="a" width="80" height="80"/></g><rect class="a" width="80" height="80"/><g transform="translate(12.5 12.5)"><path class="b" d="M32.507,14.586,20.869,2.948a2.909,2.909,0,1,0-4.114,4.114L28.393,18.7a2.909,2.909,0,1,0,4.114-4.114Z" transform="translate(21.64 -2.096)"/><rect class="b" width="5.819" height="8.567" transform="translate(19.94 34.574) rotate(-45)"/><rect class="b" width="5.818" height="8.568" transform="translate(28.041 26.481) rotate(-45)"/><path class="b" d="M36.943,24.509,16.637,4.2a2.909,2.909,0,0,0-4.114,4.114L32.828,28.624a2.909,2.909,0,0,0,4.114-4.114Z" transform="translate(13.556 0.299)"/><rect class="b" width="11.867" height="5.818" transform="translate(36.142 14.876) rotate(-45.005)"/><path class="b" d="M19.323,15.95a2.906,2.906,0,0,0-4.114,0L3.853,27.306A2.909,2.909,0,1,0,7.967,31.42L19.323,20.064A2.906,2.906,0,0,0,19.323,15.95Z" transform="translate(-3 22.728)"/><path class="b" d="M41.414,16.772,19.45,38.736l-7.524-7.524L33.89,9.248,29.775,5.134,5.755,29.155a2.912,2.912,0,0,0,0,4.114L17.393,44.907a2.908,2.908,0,0,0,4.114,0L45.528,20.886Z" transform="translate(0.635 3.704)"/></g></svg>