<svg xmlns="http://www.w3.org/2000/svg" width="32" height="32" viewBox="0 0 32 32"><defs><style>.a{fill:none;}.b{fill:#77ccdb;}</style></defs><g transform="translate(0)"><rect class="a" width="32" height="32" transform="translate(0)"/></g><g transform="translate(0)"><rect class="a" width="32" height="32" transform="translate(0)"/><g transform="translate(5 5)"><path class="b" d="M22.545,7.092,17.89,2.437a1.164,1.164,0,0,0-1.646,1.646L20.9,8.738a1.164,1.164,0,0,0,1.646-1.646Z" transform="translate(-0.886 -2.096)"/><rect class="b" width="2.328" height="3.427" transform="translate(7.976 13.829) rotate(-45)"/><rect class="b" width="2.327" height="3.427" transform="translate(11.217 10.592) rotate(-45)"/><path class="b" d="M21.779,11.814,13.657,3.692a1.164,1.164,0,0,0-1.646,1.646l8.122,8.122a1.164,1.164,0,1,0,1.646-1.646Z" transform="translate(-1.58 -1.891)"/><rect class="b" width="4.747" height="2.327" transform="translate(14.457 5.951) rotate(-45.005)"/><path class="b" d="M9.529,15.438a1.163,1.163,0,0,0-1.646,0L3.341,19.98a1.164,1.164,0,1,0,1.646,1.646l4.542-4.542A1.163,1.163,0,0,0,9.529,15.438Z" transform="translate(-3 0.033)"/><path class="b" d="M19.508,9.789l-8.786,8.786-3.01-3.01L16.5,6.78,14.852,5.134,5.244,14.742a1.165,1.165,0,0,0,0,1.646L9.9,21.043a1.163,1.163,0,0,0,1.646,0l9.608-9.608Z" transform="translate(-2.688 -1.599)"/></g></g></svg>