<svg xmlns="http://www.w3.org/2000/svg" width="32" height="32" viewBox="0 0 32 32"><defs><style>.a{fill:none;}.b{fill:#77ccdb;}</style></defs><g transform="translate(0)"><rect class="a" width="32" height="32" transform="translate(0)"/></g><g transform="translate(0 0.97)"><path class="b" d="M22.85,18.636a1,1,0,0,1-.707-.293L13.657,9.858a1,1,0,0,1,1.414-1.414l8.486,8.485a1,1,0,0,1-.707,1.707Z"/><path class="b" d="M14.364,24.293a.978.978,0,0,1-.142-.01l-4.95-.707a1,1,0,0,1-.848-.848l-.707-4.951A1,1,0,0,1,8,16.929l7.071-7.071a1,1,0,0,1,.707-.293h0a1,1,0,0,1,.707.293l5.657,5.657a1,1,0,0,1,0,1.414L15.071,24A1,1,0,0,1,14.364,24.293ZM10.3,21.7l3.712.53,6.011-6.01-4.243-4.243-6.01,6.01Z"/><path class="b" d="M8,25a1,1,0,0,1-.707-1.707l1.414-1.414a1,1,0,1,1,1.414,1.414L8.707,24.707A1,1,0,0,1,8,25Z"/><path class="b" d="M20.728,16.515a1,1,0,0,1-.707-.293l-4.243-4.243a1,1,0,0,1,0-1.414l3.535-3.536a1.031,1.031,0,0,1,1.415,0l4.243,4.243a1,1,0,0,1,0,1.414l-3.536,3.536A1,1,0,0,1,20.728,16.515ZM17.9,11.272,20.728,14.1l2.122-2.122L20.021,9.15Z"/><path class="b" d="M24.971,13.687a1,1,0,0,1-.707-.293L18.606,7.736a1,1,0,0,1,1.415-1.414l5.657,5.657a1,1,0,0,1-.707,1.708Z"/></g></svg>