<svg xmlns="http://www.w3.org/2000/svg" width="88" height="88" viewBox="0 0 88 88"><defs><style>.a{fill:none;}.b{fill:#fff;}</style></defs><rect class="a" width="88" height="88"/><g transform="translate(8.25 13.75)"><g transform="translate(0 37.718)"><path class="b" d="M-1215.085-2438.466a4.148,4.148,0,0,1-.812-.08,46.333,46.333,0,0,1-26.082-14.812,4.339,4.339,0,0,1,.728-6.09,4.334,4.334,0,0,1,5.758.358,37.719,37.719,0,0,0,21.192,12.028,4.333,4.333,0,0,1,3.455,5.063,4.336,4.336,0,0,1-4.24,3.533Z" transform="translate(1242.906 2460.375)"/></g><g transform="translate(22.259)"><path class="b" d="M-1231.892-2427.095a4.319,4.319,0,0,1-4.336-4.3v-35.647a4.333,4.333,0,0,1,4.026-4.62,4.33,4.33,0,0,1,4.623,4.025,4.234,4.234,0,0,1,0,.594v35.594a4.333,4.333,0,0,1-4.313,4.356Z" transform="translate(1236.239 2471.675)"/></g><g transform="translate(39.595 0.428)"><path class="b" d="M-1223.177-2413.319a8.01,8.01,0,0,1-4.65-1.47,7.466,7.466,0,0,1-3.218-6.082v-46.64a4.332,4.332,0,0,1,4.623-4.027,4.33,4.33,0,0,1,4.026,4.027v45.661a37.943,37.943,0,0,0,16.058-10.205,4.494,4.494,0,0,1,6.1-.36,4.006,4.006,0,0,1,.531,5.648c-.047.06-.1.12-.15.177a46.619,46.619,0,0,1-21.058,12.935A7.281,7.281,0,0,1-1223.177-2413.319Z" transform="translate(1231.045 2471.548)"/></g><g transform="translate(0.15 17.427)"><path class="b" d="M-1237.187-2466.455a5.68,5.68,0,0,1,5.678,5.679,5.676,5.676,0,0,1-5.678,5.674,5.674,5.674,0,0,1-5.676-5.674A5.678,5.678,0,0,1-1237.187-2466.455Z" transform="translate(1242.862 2466.455)"/></g><g transform="translate(60.897 17.427)"><path class="b" d="M-1218.989-2466.455a5.68,5.68,0,0,1,5.678,5.679,5.676,5.676,0,0,1-5.678,5.674,5.674,5.674,0,0,1-5.676-5.674A5.677,5.677,0,0,1-1218.989-2466.455Z" transform="translate(1224.665 2466.455)"/></g></g></svg>