<svg xmlns="http://www.w3.org/2000/svg" width="72" height="72" viewBox="0 0 72 72"><defs><style>.a{fill:none;}.b{fill:#77ccdb;}</style></defs><rect class="a" width="72" height="72"/><g transform="translate(6.75 11.25)"><g transform="translate(0 30.86)"><path class="b" d="M-1220.143-2442.45a3.4,3.4,0,0,1-.664-.065,37.911,37.911,0,0,1-21.34-12.119,3.55,3.55,0,0,1,.6-4.983,3.546,3.546,0,0,1,4.711.293,30.862,30.862,0,0,0,17.339,9.841,3.545,3.545,0,0,1,2.827,4.142,3.548,3.548,0,0,1-3.469,2.891Z" transform="translate(1242.906 2460.375)"/></g><g transform="translate(18.212)"><path class="b" d="M-1232.683-2435.2a3.534,3.534,0,0,1-3.548-3.52v-29.166a3.545,3.545,0,0,1,3.294-3.78,3.543,3.543,0,0,1,3.783,3.293,3.477,3.477,0,0,1,0,.486v29.122a3.546,3.546,0,0,1-3.529,3.564Z" transform="translate(1236.239 2471.675)"/></g><g transform="translate(32.396 0.35)"><path class="b" d="M-1224.608-2423.906a6.553,6.553,0,0,1-3.8-1.2,6.108,6.108,0,0,1-2.633-4.976v-38.16a3.545,3.545,0,0,1,3.782-3.295,3.542,3.542,0,0,1,3.294,3.295v37.359a31.044,31.044,0,0,0,13.138-8.35,3.677,3.677,0,0,1,4.995-.294,3.277,3.277,0,0,1,.435,4.621c-.038.049-.079.1-.123.145a38.141,38.141,0,0,1-17.229,10.583A5.955,5.955,0,0,1-1224.608-2423.906Z" transform="translate(1231.045 2471.548)"/></g><g transform="translate(0.122 14.258)"><path class="b" d="M-1238.219-2466.455a4.647,4.647,0,0,1,4.646,4.647,4.644,4.644,0,0,1-4.646,4.642,4.643,4.643,0,0,1-4.644-4.642A4.645,4.645,0,0,1-1238.219-2466.455Z" transform="translate(1242.862 2466.455)"/></g><g transform="translate(49.825 14.258)"><path class="b" d="M-1220.021-2466.455a4.647,4.647,0,0,1,4.646,4.647,4.644,4.644,0,0,1-4.646,4.642,4.642,4.642,0,0,1-4.644-4.642A4.645,4.645,0,0,1-1220.021-2466.455Z" transform="translate(1224.665 2466.455)"/></g></g></svg>