<svg xmlns="http://www.w3.org/2000/svg" width="224" height="223" viewBox="0 0 224 223"><defs><style>.a{fill:none;}.b{fill:#fff;}</style></defs><rect class="a" width="223" height="223"/><g transform="translate(20.907 34.846)"><g transform="translate(0 95.585)"><path class="b" d="M-1172.4-2404.853a10.5,10.5,0,0,1-2.057-.2,117.418,117.418,0,0,1-66.1-37.538,11,11,0,0,1,1.844-15.433,10.983,10.983,0,0,1,14.592.908,95.588,95.588,0,0,0,53.705,30.481,10.981,10.981,0,0,1,8.756,12.831,10.989,10.989,0,0,1-10.744,8.954Z" transform="translate(1242.906 2460.375)"/></g><g transform="translate(56.411)"><path class="b" d="M-1225.224-2358.7a10.946,10.946,0,0,1-10.989-10.9v-90.338a10.981,10.981,0,0,1,10.2-11.708,10.974,10.974,0,0,1,11.716,10.2,10.767,10.767,0,0,1,0,1.506v90.2a10.982,10.982,0,0,1-10.93,11.039Z" transform="translate(1236.239 2471.675)"/></g><g transform="translate(100.344 1.084)"><path class="b" d="M-1211.106-2323.982a20.3,20.3,0,0,1-11.785-3.725,18.919,18.919,0,0,1-8.154-15.414v-118.2a10.979,10.979,0,0,1,11.715-10.2,10.972,10.972,0,0,1,10.2,10.2V-2345.6a96.155,96.155,0,0,0,40.694-25.862,11.389,11.389,0,0,1,15.471-.911,10.151,10.151,0,0,1,1.347,14.312c-.118.153-.245.3-.381.449a118.14,118.14,0,0,1-53.367,32.781A18.445,18.445,0,0,1-1211.106-2323.982Z" transform="translate(1231.046 2471.548)"/></g><g transform="translate(0.379 44.163)"><path class="b" d="M-1228.479-2466.456a14.393,14.393,0,0,1,14.39,14.393,14.384,14.384,0,0,1-14.39,14.379,14.38,14.38,0,0,1-14.383-14.379A14.389,14.389,0,0,1-1228.479-2466.456Z" transform="translate(1242.863 2466.456)"/></g><g transform="translate(154.327 44.163)"><path class="b" d="M-1210.282-2466.456a14.394,14.394,0,0,1,14.389,14.393,14.385,14.385,0,0,1-14.389,14.379,14.379,14.379,0,0,1-14.383-14.379A14.388,14.388,0,0,1-1210.282-2466.456Z" transform="translate(1224.665 2466.456)"/></g></g></svg>