<svg xmlns="http://www.w3.org/2000/svg" width="32" height="32" viewBox="0 0 32 32"><defs><style>.a,.b{fill:#fff;}.a{opacity:0;}</style></defs><rect class="a" width="32" height="32"/><path class="b" d="M20.976,10.182,13.02,2.3a1.055,1.055,0,0,0-1.465,0L3.6,10.192a1.969,1.969,0,0,0-.6,1.43V20a2.028,2.028,0,0,0,1.95,2H19.624a2.028,2.028,0,0,0,1.95-2V11.622a2.037,2.037,0,0,0-.6-1.44ZM10.223,20V14h4.128v6Zm9.287,0h-3.1V13a1.016,1.016,0,0,0-1.032-1H9.191a1.016,1.016,0,0,0-1.032,1v7h-3.1V11.582l7.223-7.152,7.223,7.192Z" transform="translate(4 3.996)"/></svg>