<svg xmlns="http://www.w3.org/2000/svg" width="180" height="201" viewBox="0 0 180 201"><defs><style>.a{fill:none;}.b,.c{fill:#fff;}.b{font-size:18px;font-family:'jf-openhuninn-1\.0';}</style></defs><rect class="a" width="160" height="180" transform="translate(10)"/><text class="b" transform="translate(90 172)"><tspan x="-90" y="0">里辦疫苗接種便民服務</tspan><tspan x="-61.172" y="26">-網路報名系統-</tspan></text><g transform="translate(-2.815 -15.068)"><g transform="translate(38.816 37.039)"><g transform="translate(7 6.03)"><g transform="translate(31.208 10.402)"><path class="c" d="M59.883,59.569a4.89,4.89,0,0,1-3.467-1.437L14.8,16.523a4.9,4.9,0,0,1,6.934-6.934L63.35,51.2a4.9,4.9,0,0,1-3.467,8.371Z" transform="translate(-13.364 -8.151)"/></g><g transform="translate(3.467 17.337)"><path class="c" d="M40.353,81.789a4.8,4.8,0,0,1-.7-.049L15.382,78.273a4.91,4.91,0,0,1-4.158-4.158L7.757,49.835a4.886,4.886,0,0,1,1.388-4.158L43.82,11a4.9,4.9,0,0,1,3.467-1.437h0A4.891,4.891,0,0,1,50.754,11L78.495,38.743a4.907,4.907,0,0,1,0,6.934L43.82,80.352A4.925,4.925,0,0,1,40.353,81.789ZM20.414,69.083l18.2,2.6L68.094,42.21,47.287,21.4,17.815,50.875Z" transform="translate(-7.707 -9.565)"/></g><g transform="translate(0 76.285)"><path class="c" d="M11.9,38.329a4.9,4.9,0,0,1-3.467-8.371l6.934-6.934a4.9,4.9,0,0,1,6.934,6.934l-6.934,6.934A4.89,4.89,0,0,1,11.9,38.329Z" transform="translate(-7 -21.586)"/></g><g transform="translate(41.613 3.522)"><path class="c" d="M41.194,54.645a4.89,4.89,0,0,1-3.467-1.437L16.92,32.4a4.907,4.907,0,0,1,0-6.934L34.255,8.127a5.053,5.053,0,0,1,6.939,0L62,28.934a4.9,4.9,0,0,1,0,6.934l-17.34,17.34A4.907,4.907,0,0,1,41.194,54.645ZM27.321,28.934,41.194,42.807,51.6,32.4,37.727,18.528Z" transform="translate(-15.485 -6.748)"/></g><g transform="translate(55.481)"><path class="c" d="M50.961,43.581a4.89,4.89,0,0,1-3.467-1.437L19.748,14.4a4.9,4.9,0,0,1,6.939-6.934L54.428,35.2a4.906,4.906,0,0,1-3.467,8.376Z" transform="translate(-18.313 -6.029)"/></g></g></g></g></svg>