<svg xmlns="http://www.w3.org/2000/svg" width="32" height="32" viewBox="0 0 32 32"><defs><style>.a,.b{fill:#736db9;}.a{opacity:0;}</style></defs><rect class="a" width="32" height="32"/><path class="b" d="M27.728,12.817a.827.827,0,0,0,.093-.253l1-5.333a1.355,1.355,0,1,0-2.667-.48l-.493,2.667a12.293,12.293,0,0,0-22.107,1.12,1.337,1.337,0,0,0,2.48,1,9.44,9.44,0,0,1,8.907-5.88,9.56,9.56,0,0,1,8.32,4.773l-2.2-.36a1.35,1.35,0,1,0-.427,2.667l5.667.947h.213a1.24,1.24,0,0,0,.453-.08.44.44,0,0,0,.133-.08,1.04,1.04,0,0,0,.267-.147l.107-.133a1.427,1.427,0,0,0,.187-.213.773.773,0,0,0,.067-.213Z" transform="translate(1.152 1.01)"/><path class="b" d="M26.009,14.432a1.333,1.333,0,0,0-1.747.747,9.44,9.44,0,0,1-8.853,5.827,9.56,9.56,0,0,1-8.32-4.773l2.2.36H9.5a1.338,1.338,0,0,0,.213-2.667l-5.667-.92a1.213,1.213,0,0,0-.44,0H3.5a1.533,1.533,0,0,0-.427.187,1.333,1.333,0,0,0-.24.24l-.12.133a1.12,1.12,0,0,0-.093.253.587.587,0,0,0-.093.227l-1,5.333A1.333,1.333,0,0,0,2.6,21.005h.24a1.333,1.333,0,0,0,1.333-1.093l.493-2.667a12.293,12.293,0,0,0,22.107-1.107,1.333,1.333,0,0,0-.76-1.707Z" transform="translate(0.497 4.328)"/></svg>