<svg xmlns="http://www.w3.org/2000/svg" width="32" height="32" viewBox="0 0 32 32"><defs><style>.a{fill:rgba(98,103,129,0);}.b{fill:rgba(98,103,129,0.4);}</style></defs><rect class="a" width="32" height="32" transform="translate(0 0)"/><path class="b" d="M27.137,18.522a1.336,1.336,0,0,0-1.7.812A10,10,0,0,1,8.9,23.039l-3.39-3.185H9.7a1.333,1.333,0,0,0,0-2.666H2.148c-.006,0-.012,0-.019,0a1.349,1.349,0,0,0-.342.069,1.554,1.554,0,0,0-.167.038,1.423,1.423,0,0,0-.161.109,1.351,1.351,0,0,0-.265.188c0,.006-.012.007-.017.012a1.258,1.258,0,0,0-.1.163,1.243,1.243,0,0,0-.162.262,1.263,1.263,0,0,0-.061.3,1.345,1.345,0,0,0-.038.191v7.554a1.334,1.334,0,0,0,2.667,0V21.6l3.566,3.35a12.681,12.681,0,0,0,17.913,0,12.756,12.756,0,0,0,2.987-4.732A1.334,1.334,0,0,0,27.137,18.522Z"/><path class="b" d="M31.147,13.669a1.3,1.3,0,0,0,.038-.186V5.928a1.333,1.333,0,1,0-2.666,0V10.4L24.952,7.05a12.666,12.666,0,0,0-20.9,4.729,1.333,1.333,0,0,0,2.514.889A10.012,10.012,0,0,1,19.329,6.577,10.117,10.117,0,0,1,23.1,8.964l3.389,3.185H22.3a1.334,1.334,0,0,0,0,2.667h7.556a1.318,1.318,0,0,0,.519-.1l.011-.007a1.328,1.328,0,0,0,.424-.3c.005-.005.012-.007.017-.012a1.239,1.239,0,0,0,.1-.166,1.293,1.293,0,0,0,.16-.258A1.254,1.254,0,0,0,31.147,13.669Z"/></svg>