<svg xmlns="http://www.w3.org/2000/svg" width="32.021" height="32" viewBox="0 0 32.021 32"><defs><style>.a{fill:none;stroke:#736db9;stroke-miterlimit:10;stroke-width:0;}.b{fill:#fff;}</style></defs><rect class="a" width="32.021" height="32"/><g transform="translate(0.011)"><path class="b" d="M16.231,24.779a.667.667,0,0,0,.667-.667V21.283h3.09a.667.667,0,0,0,.667-.667V12.945h1.151a.666.666,0,1,0,0-1.333H19.123V9.055h.938a.667.667,0,0,0,0-1.334H12.4a.667.667,0,0,0,0,1.334h.806v2.557H10.655a.666.666,0,1,0,0,1.333h1.151v7.671a.667.667,0,0,0,.667.667h3.09v2.829A.668.668,0,0,0,16.231,24.779ZM14.54,9.055h3.248v2.557H14.54Zm-1.4,10.9V12.945h6.181V19.95Z"/><path class="b" d="M8.031,15.886a2.5,2.5,0,1,0-2.5,2.5A2.5,2.5,0,0,0,8.031,15.886Zm-3.67,0a1.168,1.168,0,1,1,1.168,1.167A1.169,1.169,0,0,1,4.361,15.886Z"/><path class="b" d="M6.2,12.123V7.87c3.6-.622,8.633-3.68,10.035-4.565h0c1.4.885,6.433,3.943,10.035,4.565v4.253a3.677,3.677,0,0,1,1.334,0V6.683L27,6.625C23.213,6.261,16.668,2,16.6,1.955l-.366-.24,0,0,0,0-.366.24C15.8,2,9.254,6.261,5.465,6.625l-.6.058v5.44a3.677,3.677,0,0,1,1.334,0Z"/><path class="b" d="M26.938,13.386a2.5,2.5,0,1,0,2.5,2.5A2.5,2.5,0,0,0,26.938,13.386Zm0,3.667A1.167,1.167,0,1,1,28.1,15.886,1.169,1.169,0,0,1,26.938,17.053Z"/><path class="b" d="M26.265,19.876a6.028,6.028,0,0,1-3.651,5.418,48.653,48.653,0,0,0-6.378,3.4l0,0,0,0a48.653,48.653,0,0,0-6.378-3.4A6.026,6.026,0,0,1,6.2,19.876a3.926,3.926,0,0,1-.673.062,3.887,3.887,0,0,1-.661-.06A7.354,7.354,0,0,0,9.33,26.52a49.041,49.041,0,0,1,6.535,3.525l.366.24,0,0,0,0,.366-.24a48.967,48.967,0,0,1,6.535-3.525A7.356,7.356,0,0,0,27.6,19.878a3.887,3.887,0,0,1-.661.06A3.926,3.926,0,0,1,26.265,19.876Z"/></g></svg>