<svg xmlns="http://www.w3.org/2000/svg" width="32" height="32" viewBox="0 0 32 32"><defs><style>.a,.b{fill:#fff;}.a{opacity:0;}</style></defs><rect class="a" width="32" height="32" transform="translate(32) rotate(90)"/><g transform="translate(6 7)"><path class="b" d="M12.824,6.353a1.176,1.176,0,0,0,0-2.353H5.176A1.176,1.176,0,0,0,4,5.176V21.644a1.176,1.176,0,0,0,1.176,1.176h7.647a1.176,1.176,0,0,0,0-2.353H6.353V6.353Z" transform="translate(-4 -4)"/><path class="b" d="M22.9,12.2,19.586,7.494a1.177,1.177,0,1,0-1.917,1.364l2.023,2.847H10.176a1.176,1.176,0,0,0,0,2.353h9.41l-2.117,2.823a1.176,1.176,0,1,0,1.882,1.412l3.529-4.705A1.176,1.176,0,0,0,22.9,12.2Z" transform="translate(-3.119 -3.472)"/></g></svg>