<svg xmlns="http://www.w3.org/2000/svg" width="24" height="24" viewBox="0 0 24 24"><defs><style>.a{fill:none;}.b{fill:#fff;}</style></defs><rect class="a" width="24" height="24"/><path class="a" d="M0,0H24V24H0Z"/><path class="b" d="M12,13.442H5.442A4.753,4.753,0,0,0,.694,18.189v1.874a1,1,0,0,0,2,0V18.189a2.751,2.751,0,0,1,2.748-2.747H12a2.75,2.75,0,0,1,2.747,2.747v1.874a1,1,0,0,0,2,0V18.189A4.753,4.753,0,0,0,12,13.442Z"/><path class="b" d="M8.721,11.694A4.747,4.747,0,1,0,3.974,6.947,4.753,4.753,0,0,0,8.721,11.694Zm0-7.494A2.747,2.747,0,1,1,5.974,6.947,2.75,2.75,0,0,1,8.721,4.2Z"/><path class="b" d="M22.306,9.694H20.5V7.884a1,1,0,0,0-2,0v1.81h-1.81a1,1,0,0,0,0,2H18.5v1.811a1,1,0,0,0,2,0V11.694h1.811a1,1,0,0,0,0-2Z"/></svg>