<svg xmlns="http://www.w3.org/2000/svg" width="24" height="24" viewBox="0 0 24 24"><defs><style>.a{fill:none;}.b{fill:#626781;}</style></defs><rect class="a" width="24" height="24"/><path class="a" d="M0,0H24V24H0Z"/><path class="b" d="M9,20H5a1,1,0,0,1-1-1V5A1,1,0,0,1,5,4H9A1,1,0,0,0,9,2H5A3,3,0,0,0,2,5V19a3,3,0,0,0,3,3H9a1,1,0,0,0,0-2Z"/><path class="b" d="M21.923,12.382a1,1,0,0,0-.217-1.09l-5-5a1,1,0,1,0-1.414,1.414L18.586,11H9a1,1,0,0,0,0,2h9.586l-3.293,3.293a1,1,0,1,0,1.414,1.414l5-5A1,1,0,0,0,21.923,12.382Z"/></svg>