<svg xmlns="http://www.w3.org/2000/svg" width="24" height="24" viewBox="0 0 24 24"><defs><style>.a{fill:none;}.b{fill:#fff;}</style></defs><rect class="a" width="24" height="24"/><path class="a" d="M0,0H24V24H0Z"/><path class="b" d="M20.922,7.615a1,1,0,0,0-.216-.323l-6-6a1,1,0,0,0-.323-.216A.988.988,0,0,0,14,1H6A3,3,0,0,0,3,4V20a3,3,0,0,0,3,3H18a3,3,0,0,0,3-3V8A.992.992,0,0,0,20.922,7.615ZM15,4.414,17.586,7H15ZM18,21H6a1,1,0,0,1-1-1V4A1,1,0,0,1,6,3h7V8a1,1,0,0,0,1,1h5V20A1,1,0,0,1,18,21Z"/><path class="b" d="M15,14H13V12a1,1,0,0,0-2,0v2H9a1,1,0,0,0,0,2h2v2a1,1,0,0,0,2,0V16h2a1,1,0,0,0,0-2Z"/></svg>