<svg xmlns="http://www.w3.org/2000/svg" width="56" height="56" viewBox="0 0 56 56"><defs><style>.a{fill:rgba(240,82,75,0);}.b{fill:rgba(115,109,185,0.7);}</style></defs><rect class="a" width="56" height="56"/><path class="b" d="M48.876,11.512H39.543V9.179a7.008,7.008,0,0,0-7-7H23.209a7.008,7.008,0,0,0-7,7v2.333H6.876a2.334,2.334,0,0,0,0,4.667H9.209V46.512a7.008,7.008,0,0,0,7,7H39.543a7.008,7.008,0,0,0,7-7V16.179h2.333a2.334,2.334,0,0,0,0-4.667Zm-28-2.333a2.336,2.336,0,0,1,2.333-2.333h9.334a2.336,2.336,0,0,1,2.334,2.333v2.333h-14Zm21,37.333a2.337,2.337,0,0,1-2.334,2.334H16.209a2.336,2.336,0,0,1-2.333-2.334V16.179h28Z"/><path class="b" d="M23.209,23.179a2.334,2.334,0,0,0-2.333,2.333v14a2.333,2.333,0,0,0,4.667,0v-14A2.334,2.334,0,0,0,23.209,23.179Z"/><path class="b" d="M32.543,23.179a2.333,2.333,0,0,0-2.333,2.333v14a2.333,2.333,0,1,0,4.666,0v-14A2.333,2.333,0,0,0,32.543,23.179Z"/></svg>