<svg xmlns="http://www.w3.org/2000/svg" width="56" height="56" viewBox="0 0 56 56"><defs><style>.a,.b{fill:#fc8e5e;}.a{opacity:0;}</style></defs><rect class="a" width="56" height="56" transform="translate(56) rotate(90)"/><path class="b" d="M51.294,35.373,33.4,5.69a8,8,0,0,0-13.488,0L2.01,35.373a7,7,0,0,0-.117,7,7.864,7.864,0,0,0,6.861,3.967h35.8a7.864,7.864,0,0,0,6.861-3.874,7,7,0,0,0-.117-7.094Zm-3.967,4.784a3.057,3.057,0,0,1-2.777,1.517H8.754a3.057,3.057,0,0,1-2.777-1.517,2.334,2.334,0,0,1,0-2.334L23.9,8.117a3.454,3.454,0,0,1,5.507,0L47.3,37.8a2.334,2.334,0,0,1,.023,2.357Z" transform="translate(1.351 2.664)"/><ellipse class="b" cx="2" cy="2.5" rx="2" ry="2.5" transform="translate(26 35)"/><path class="b" d="M13.334,8A2.334,2.334,0,0,0,11,10.334v9.334a2.334,2.334,0,1,0,4.667,0V10.334A2.334,2.334,0,0,0,13.334,8Z" transform="translate(14.669 10.668)"/></svg>