<svg xmlns="http://www.w3.org/2000/svg" width="56" height="56" viewBox="0 0 56 56"><defs><style>.a{fill:#fff;opacity:0;}.b{fill:#2eb6c7;}</style></defs><rect class="a" width="56" height="56"/><path class="b" d="M11.979,18.25a2.333,2.333,0,1,0-3.3,3.3l6.972,6.972a2.255,2.255,0,0,0,3.323-.116L35.242,9.814a2.324,2.324,0,0,0-3.486-3.068L17.3,23.479Z" transform="translate(10.679 8.079)"/><path class="b" d="M46.087,22.916a2.324,2.324,0,0,0-2.324,2.324A18.586,18.586,0,1,1,25.171,6.648a20.428,20.428,0,0,1,4.416.511,2.324,2.324,0,1,0,1.092-4.508A24.494,24.494,0,0,0,25.171,2a23.24,23.24,0,1,0,23.24,23.24A2.324,2.324,0,0,0,46.087,22.916Z" transform="translate(2.809 2.74)"/></svg>