<svg xmlns="http://www.w3.org/2000/svg" width="24" height="24" viewBox="0 0 24 24"><defs><style>.a{fill:none;}.b{fill:#626781;}</style></defs><rect class="a" width="24" height="24"/><path class="a" d="M0,0H24V24H0Z"/><path class="b" d="M21,14a1,1,0,0,0-1,1v4a1,1,0,0,1-1,1H5a1,1,0,0,1-1-1V15a1,1,0,0,0-2,0v4a3,3,0,0,0,3,3H19a3,3,0,0,0,3-3V15A1,1,0,0,0,21,14Z"/><path class="b" d="M11.292,15.706a1,1,0,0,0,1.416,0l5-5a1,1,0,1,0-1.414-1.414L13,12.586V3a1,1,0,0,0-2,0v9.586L7.707,9.293a1,1,0,1,0-1.414,1.414Z"/></svg>