<svg xmlns="http://www.w3.org/2000/svg" width="24" height="24" viewBox="0 0 24 24"><defs><style>.a,.b{fill:none;}.b{stroke:#000;stroke-linecap:round;stroke-linejoin:round;stroke-width:2px;}.c{fill:#626781;}</style></defs><rect class="a" width="24" height="24"/><path class="a" d="M0,0H24V24H0Z"/><path class="b" d="M22,18.819a2,2,0,0,1-2,2H4a2,2,0,0,1-2-2v-14a2,2,0,0,1,2-2H9l2,3h9a2,2,0,0,1,2,2Z"/><line class="b" y2="6" transform="translate(12 10.819)"/><line class="b" x2="6" transform="translate(9 13.819)"/><g transform="translate(1 1.819)"><g transform="translate(-1 -1.819)"><path class="c" d="M20,4.819H11.535l-1.7-2.555A1,1,0,0,0,9,1.819H4a3,3,0,0,0-3,3v14a3,3,0,0,0,3,3H20a3,3,0,0,0,3-3v-11A3,3,0,0,0,20,4.819Zm1,14a1,1,0,0,1-1,1H4a1,1,0,0,1-1-1v-14a1,1,0,0,1,1-1H8.465l1.7,2.555A1,1,0,0,0,11,6.819h9a1,1,0,0,1,1,1Z"/><path class="c" d="M15,12.818H13v-2a1,1,0,1,0-2,0v2H9a1,1,0,0,0,0,2h2v2a1,1,0,0,0,2,0v-2h2a1,1,0,0,0,0-2Z"/></g></g></svg>