<svg xmlns="http://www.w3.org/2000/svg" width="24" height="24" viewBox="0 0 24 24"><defs><style>.a{fill:none;}.b{fill:#626781;}</style></defs><rect class="a" width="24" height="24"/><path class="a" d="M0,0H24V24H0Z"/><path class="b" d="M21,18.756H12a1,1,0,0,0,0,2h9a1,1,0,0,0,0-2Z"/><path class="b" d="M20.207,2.549a3.125,3.125,0,0,0-4.414,0l-12.5,12.5a1,1,0,0,0-.263.465l-1,4A1,1,0,0,0,3,20.756a1.01,1.01,0,0,0,.243-.03l4-1a1,1,0,0,0,.464-.263l12.5-12.5A3.125,3.125,0,0,0,20.207,2.549Zm-1.414,3-12.3,12.3-2.114.529L4.9,16.268l12.3-12.3a1.15,1.15,0,0,1,1.586,0A1.125,1.125,0,0,1,18.793,5.549Z"/></svg>