<svg xmlns="http://www.w3.org/2000/svg" width="24" height="24" viewBox="0 0 24 24"><defs><style>.a{fill:none;}.b{fill:#626781;}</style></defs><g transform="translate(0.007)"><rect class="a" width="24" height="24" transform="translate(-0.007)"/><path class="a" d="M-.007,0h24V24h-24Z"/></g><g transform="translate(0.007)"><path class="b" d="M21.791,11.553c-.144-.287-3.586-7.028-9.8-7.028s-9.654,6.741-9.8,7.028a1,1,0,0,0,0,.894c.144.287,3.586,7.028,9.8,7.028s9.654-6.741,9.8-7.028A1,1,0,0,0,21.791,11.553Zm-9.8,5.922c-4.151,0-6.936-4.094-7.757-5.475.821-1.381,3.606-5.475,7.757-5.475S18.929,10.619,19.751,12C18.929,13.381,16.145,17.475,11.993,17.475Z"/><path class="b" d="M11.993,8.572A3.428,3.428,0,1,0,15.421,12,3.432,3.432,0,0,0,11.993,8.572Zm0,4.856A1.428,1.428,0,1,1,13.421,12,1.43,1.43,0,0,1,11.993,13.428Z"/></g></svg>